<?xml version="1.0" encoding="utf-8"?>
<!-- Generator: Adobe Illustrator 26.0.2, SVG Export Plug-In . SVG Version: 6.00 Build 0)  -->
<svg version="1.1" id="Слой_1" xmlns="http://www.w3.org/2000/svg" xmlns:xlink="http://www.w3.org/1999/xlink" x="0px" y="0px"
	 viewBox="0 0 595.28 841.89" style="enable-background:new 0 0 595.28 841.89;" xml:space="preserve">
<style type="text/css">
	.st0{fill:#FFFFFF;}
</style>
<g>
	<path class="st0" d="M168.74,379.32c0.47,0.2,0.93,0.42,1.41,0.6c4.33,1.58,7.05,4.98,7.17,9.25c0.15,5.06-1.98,9.01-6.56,11.18
		c-2.14,1.02-4.66,1.6-7.03,1.67c-7.75,0.25-15.51,0.18-23.26,0.2c-0.31,0-0.63-0.4-0.94-0.61c0.31-0.21,0.6-0.48,0.94-0.61
		c0.28-0.11,0.63-0.06,0.95-0.09c2.64-0.19,3.93-1.42,4.03-4.1c0.13-3.27,0.15-6.55,0.2-9.82c0.04-2.56,0.03-5.12,0.05-7.67
		C153.38,379.32,161.06,379.32,168.74,379.32z M151.51,389.64c0,2.68,0.02,5.35-0.01,8.03c-0.01,0.94,0.26,1.53,1.3,1.62
		c2.18,0.19,4.36,0.59,6.55,0.58c3.27-0.01,6.36-0.78,8.63-3.41c4.46-5.16,1.99-13.17-4.73-15.36c-3.54-1.15-7.18-0.93-10.81-0.76
		c-0.89,0.04-0.93,0.72-0.93,1.39C151.51,384.37,151.51,387,151.51,389.64z"/>
	<path class="st0" d="M246.02,379.32c-3.49,4.81-6.88,9.71-10.53,14.4c-1.95,2.51-0.57,7.13,2.98,7.07c0.55-0.01,1.13,0.04,1.66,0.2
		c0.25,0.07,0.49,0.44,0.57,0.72c0.03,0.12-0.36,0.4-0.61,0.51c-0.2,0.09-0.47,0.03-0.71,0.03c-5.15,0-10.3,0-15.46,0
		c-0.24,0-0.51,0.06-0.71-0.03c-0.25-0.12-0.65-0.43-0.61-0.54c0.09-0.28,0.35-0.65,0.6-0.71c0.81-0.2,1.66-0.24,2.48-0.4
		c1.5-0.28,2.43-1.17,2.61-2.71c0.17-1.54,0.37-3.09,0.4-4.64c0.06-4.63,0.05-9.26,0.06-13.89c2,0,4,0,6,0c0,3.87,0,7.74,0,11.97
		c3.03-4.2,5.84-8.09,8.64-11.97C244.26,379.32,245.14,379.32,246.02,379.32z"/>
	<path class="st0" d="M380.42,379.32c-2.81,3.88-5.61,7.77-8.42,11.65c-0.51,0.71-1.02,1.43-1.59,2.1
		c-1.52,1.78-1.56,3.76-0.83,5.85c0.35,1.02,1.16,1.5,2.14,1.71c0.78,0.16,1.59,0.17,2.36,0.35c0.39,0.09,0.72,0.43,1.08,0.65
		c-0.37,0.18-0.74,0.51-1.11,0.52c-4.87,0.04-9.75,0.02-14.62,0.02c-0.48,0-0.97,0.05-1.43-0.02c-0.29-0.05-0.56-0.29-0.83-0.45
		c0.26-0.24,0.49-0.61,0.8-0.69c0.73-0.19,1.5-0.22,2.24-0.35c1.51-0.26,2.42-1.16,2.69-2.66c0.12-0.67,0.25-1.34,0.25-2.02
		c0.01-5.55,0-11.1,0-16.66c2,0,4,0,6,0c-0.02,3.83-0.04,7.67-0.05,11.5c0,0.05,0.1,0.1,0.21,0.21c0.13-0.12,0.28-0.23,0.39-0.37
		c2.55-3.49,5.09-6.97,7.62-10.47c0.16-0.23,0.16-0.57,0.23-0.86C378.5,379.32,379.46,379.32,380.42,379.32z"/>
	<path class="st0" d="M260.18,379.32c0,5.79-0.04,11.58,0.02,17.37c0.03,2.88,1.71,4.29,4.68,4.18c0.35-0.01,0.79,0.07,1.04,0.28
		c0.14,0.12,0.12,0.74-0.03,0.86c-0.27,0.2-0.7,0.24-1.06,0.24c-1.19,0.02-2.39-0.01-3.58-0.01c-4.23,0.01-8.46,0.04-12.69,0.02
		c-0.22,0-0.61-0.4-0.62-0.62c0-0.24,0.32-0.62,0.57-0.69c0.57-0.15,1.19-0.13,1.78-0.22c2.62-0.42,3.51-1.37,3.63-4.05
		c0.11-2.59,0.15-5.19,0.15-7.78c0-3.19-0.08-6.38-0.13-9.58C256.02,379.32,258.1,379.32,260.18,379.32z"/>
	<path class="st0" d="M306.02,379.32c-0.06,4.23-0.13,8.46-0.16,12.7c-0.01,1.48,0,2.96,0.1,4.43c0.21,3.14,1.11,4.03,4.22,4.42
		c0.61,0.08,1.74-0.36,1.64,0.79c-0.09,1.07-1.16,0.56-1.77,0.56c-4.8,0.05-9.6,0.03-14.39,0.03c-0.28,0-0.58,0.07-0.83-0.02
		c-0.36-0.12-0.69-0.35-1.03-0.53c0.32-0.26,0.59-0.65,0.95-0.76c0.76-0.23,1.57-0.28,2.35-0.45c1.47-0.31,2.29-1.26,2.45-2.73
		c0.14-1.27,0.26-2.55,0.27-3.82c0.05-4.64,0.06-9.27,0.08-13.91c0-0.24-0.07-0.47-0.1-0.71
		C301.86,379.32,303.94,379.32,306.02,379.32z"/>
	<path class="st0" d="M214.1,379.32c0.01,3.91,0.01,7.83,0.05,11.74c0.02,1.76,0.1,3.51,0.19,5.27c0.17,3.15,1.13,4.13,4.27,4.56
		c0.61,0.08,1.65-0.37,1.6,0.8c-0.01,0.21-1.08,0.53-1.67,0.53c-5.15,0.03-10.31,0.01-15.46-0.03c-0.28,0-0.57-0.34-0.85-0.52
		c0.24-0.25,0.44-0.63,0.73-0.72c0.56-0.17,1.18-0.17,1.77-0.26c2.33-0.37,3.29-1.37,3.36-3.76c0.1-3.51,0.11-7.03,0.11-10.54
		c0-2.35-0.07-4.71-0.1-7.06C210.1,379.32,212.1,379.32,214.1,379.32z"/>
	<path class="st0" d="M280.34,379.32c0.01,5.08,0.02,10.15,0.05,15.23c0.01,0.96,0.08,1.92,0.21,2.86c0.31,2.36,1.8,3.45,4.65,3.46
		c0.5,0,1.17-0.18,1.09,0.64c-0.03,0.3-0.47,0.79-0.73,0.79c-4.79,0.02-9.58-0.02-14.37-0.05c-0.71,0-1.43,0.05-2.14-0.01
		c-0.26-0.02-0.5-0.32-0.76-0.5c0.2-0.27,0.36-0.72,0.62-0.79c0.92-0.24,1.89-0.31,2.82-0.52c1.35-0.31,2.25-1.18,2.31-2.57
		c0.17-3.75,0.27-7.5,0.32-11.25c0.04-2.43-0.05-4.87-0.08-7.3C276.34,379.32,278.34,379.32,280.34,379.32z"/>
	<path class="st0" d="M394.58,379.32c-0.01,5.39-0.01,10.78-0.02,16.17c0,0.24,0.02,0.48,0.04,0.72c0.33,3.57,1.24,4.46,4.84,4.74
		c0.16,0.01,0.36-0.04,0.47,0.04c0.25,0.19,0.46,0.44,0.68,0.67c-0.26,0.17-0.52,0.48-0.78,0.48c-2.2,0.04-4.39,0.02-6.59,0.02
		c-3.51,0-7.02,0-10.52,0c-0.32-0.81-0.03-1.12,0.67-1.21c0.87-0.12,1.74-0.23,2.59-0.42c1.36-0.3,2.17-1.2,2.35-2.55
		c0.19-1.38,0.36-2.78,0.36-4.17c0.01-4.83-0.06-9.66-0.09-14.49C390.58,379.32,392.58,379.32,394.58,379.32z"/>
	<path class="st0" d="M348.74,379.32c0.01,5.55,0.02,11.1,0.05,16.66c0.02,3.64,1.27,4.86,4.91,4.96c0.34,0.01,0.68,0.43,1.01,0.65
		c-0.26,0.22-0.52,0.63-0.79,0.64c-2.87,0.02-5.74-0.04-8.62-0.06c-2.56-0.02-5.11,0-7.67-0.04c-0.28-0.01-0.56-0.34-0.84-0.53
		c0.28-0.21,0.53-0.5,0.84-0.62c0.32-0.12,0.71-0.05,1.07-0.1c2.96-0.37,3.95-1.36,4.01-4.33c0.11-4.71,0.09-9.42,0.14-14.13
		c0.01-1.04,0.08-2.07,0.12-3.1C344.9,379.32,346.82,379.32,348.74,379.32z"/>
	<path class="st0" d="M195.38,379.32c-0.24,2.46-0.37,4.94-0.74,7.38c-0.45,2.95-0.85,5.94-1.76,8.76c-1.06,3.29-3.11,6-6.7,6.92
		c-1.27,0.33-2.7,0.32-4.02,0.16c-1.54-0.19-2.57-1.24-3.03-2.74c-0.36-1.18-0.22-2.29,0.69-3.22c0.96-0.98,1.92-1.17,3.13-0.51
		c0.66,0.36,1.27,0.84,1.93,1.2c1.55,0.85,2.8,0.63,3.96-0.7c1.41-1.61,2.13-3.54,2.52-5.61c0.73-3.85,1.21-7.72,0.89-11.65
		C193.3,379.32,194.34,379.32,195.38,379.32z"/>
	<path class="st0" d="M329.83,379.35c-0.33,3.53-0.46,7.1-1.07,10.59c-0.46,2.64-1.3,5.27-2.39,7.72c-1.36,3.05-4.02,4.65-7.34,5.09
		c-2.71,0.37-4.99-1.01-5.47-3.31c-0.28-1.34,0.12-2.47,1.21-3.28c1.09-0.8,2.18-0.53,3.22,0.19c0.13,0.09,0.27,0.18,0.4,0.27
		c2.64,1.8,4.12,1.51,5.81-1.19c1.26-2,1.84-4.25,2.07-6.56c0.31-3.17,0.46-6.35,0.68-9.53
		C327.91,379.34,328.87,379.35,329.83,379.35z"/>
</g>
</svg>
