<?xml version="1.0" encoding="utf-8"?>
<!-- Generator: Adobe Illustrator 26.0.2, SVG Export Plug-In . SVG Version: 6.00 Build 0)  -->
<svg version="1.1" id="Слой_1" xmlns="http://www.w3.org/2000/svg" xmlns:xlink="http://www.w3.org/1999/xlink" x="0px" y="0px"
	 viewBox="0 0 595.28 841.89" style="enable-background:new 0 0 595.28 841.89;" xml:space="preserve">
<style type="text/css">
	.st0{fill:#E61A70;}
	.st1{fill:#FFFFFF;}
</style>
<path class="st0" d="M136.93,373c2.12-1.39,4.2-2.66,6.34-3.81c7.41-4.01,14.81-8.03,22.21-12.04
	c11.06-5.98,21.72-12.62,32.18-19.58c2.66-1.77,5.08-3.83,7.04-6.37c0.98-1.27,2.21-2.16,3.68-2.74c1.86-0.73,3.71-1.46,5.57-2.19
	c2.56-1.01,4.95-2.29,7.17-3.92c4.14-3.03,8.7-5.3,13.43-7.23c7.19-2.93,14.57-5.31,22.01-7.5c2.34-0.69,4.66-1.44,6.98-2.18
	c2.26-0.72,4.43-1.65,6.39-3.02c0.3-0.21,0.64-0.35,0.87-0.47c0.94,0.09,1.42,0.7,1.97,1.17c1.86,1.58,3.69,3.19,5.57,4.75
	c5.32,4.44,11.52,6.8,18.32,7.77c3.09,0.44,6.18,0.55,9.28,0.48c6.75-0.16,13.15-1.78,19.22-4.7c1.46-0.7,2.85-1.56,4.21-2.45
	c2.05-1.36,3.8-3.05,5.04-5.21c0.47-0.82,0.97-1.65,1.83-2.38c0.94,0.61,1.87,1.19,2.78,1.8c1.06,0.7,2.14,1.3,3.47,1.33
	c0.36,0.01,0.72,0.16,1.06,0.26c1.9,0.59,3.79,1.22,5.7,1.78c6.17,1.8,12.29,3.74,18.14,6.46c7.58,3.52,15.37,6.49,23.25,9.25
	c2.23,0.78,4.49,1.47,6.69,2.3c0.74,0.28,1.46,0.76,2.02,1.31c1.92,1.9,4.16,3.3,6.49,4.59c4.65,2.58,9.31,5.14,13.92,7.8
	c1.98,1.14,3.82,2.51,5.73,3.78c1.91,1.26,3.74,2.67,5.74,3.76c3.43,1.88,6.96,3.59,10.47,5.31c2.46,1.2,4.79,2.6,7.08,4.12
	c6.16,4.08,12.5,7.88,19.24,10.96c0.44,0.2,1.94,0.75,3.81,1.78c1.41,0.78,2.49,1.52,3.16,2c-3.61,7.22-6.94,13.13-9.53,17.52
	c-3.52,5.96-6.57,10.54-9.46,15.01c-2.45,3.78-4.97,7.53-7.58,11.2c-3.21,4.52-6.51,8.97-9.82,13.42c-1.32,1.78-2.76,3.47-4.18,5.17
	c-1.12,1.34-1.46,1.45-3,0.5c-6-3.71-12.51-6.33-18.95-9.13c-2.23-0.97-4.46-1.97-6.72-2.89c-1.99-0.81-3.55-2.05-4.65-3.92
	c-0.62-1.07-1.28-2.13-2.14-3.03c-0.59,0.25-0.41,0.67-0.35,0.96c0.29,1.45,0.62,2.89,0.95,4.33c0.92,3.99,1.39,7.99,0.86,12.1
	c-0.24,1.83-0.26,3.69-0.25,5.54c0.01,1.17,0.09,2.39,0.42,3.5c1.34,4.49,1.88,9.11,2.33,13.75c0.54,5.59,1.13,11.18,1.61,16.77
	c0.61,7.14,1.36,14.27,1.57,21.45c0.38,12.86,0.81,25.72,1.33,38.57c0.21,5.09,0.69,10.18,1.12,15.26c0.3,3.62,0.27,7.22,0.11,10.66
	c-0.56,0.72-1.16,0.68-1.75,0.64c-1.62-0.11-3.24-0.3-4.86-0.33c-9.09-0.13-18.17,0.32-27.25,0.62c-7.53,0.25-15.07,0.46-22.6,0.7
	c-17.21,0.55-34.43,0.69-51.64,0.64c-14.19-0.03-28.37-0.22-42.56-0.4c-5.62-0.07-11.22-0.47-16.81-1.05
	c-5.58-0.58-11.18-1.02-16.77-1.53c-3.09-0.28-6.18-0.53-9.26-0.9c-4.87-0.58-9.74-0.3-14.61-0.14c-0.73,0.02-1.46,0-2.08,0
	c-0.73-0.59-0.63-1.3-0.6-1.94c0.1-1.92,0.19-3.84,0.39-5.75c0.28-2.72,0.68-5.43,0.99-8.14c0.12-1.03,0.18-2.06,0.17-3.1
	c-0.07-6.21,0.07-12.42,0.55-18.62c0.31-4.05,0.74-8.1,1.08-12.15c0.38-4.49,0.72-8.99,1.07-13.48c0.47-5.98,0.4-11.96,0.17-17.95
	c-0.16-4.13,0.01-8.28,0.12-12.42c0.12-4.29,0.33-8.57,0.52-12.85c0.3-6.87,0.61-13.74,0.91-20.61c0.02-0.44,0.01-0.9,0.1-1.33
	c0.49-2.18,0.69-4.35,0.35-6.59c-0.14-0.92,0.09-1.9,0.15-2.94c-0.86,0.22-1.35,0.91-1.94,1.42c-2.21,1.92-4.68,3.35-7.5,4.15
	c-0.85,0.24-1.71,0.53-2.59,0.6c-1.51,0.12-2.86,0.66-4.25,1.18c-4.43,1.66-8.82,3.41-13.06,5.5c-0.46,0.22-0.95,0.37-1.37,0.53
	c-0.94-0.34-1.27-1.13-1.72-1.78c-5.06-7.37-10.15-14.73-15.13-22.15c-3.17-4.72-6.25-9.51-9.26-14.35c-1.99-3.2-3.81-6.5-5.65-9.79
	C140.31,379.35,138.7,376.28,136.93,373z"/>
<path class="st1" d="M272.75,376.89c0.75,0.1,1.51,0.18,2.26,0.31c0.4,0.07,0.81,0.17,1.18,0.35c0.57,0.27,0.98,0.72,0.97,1.49
	c-0.01,0.77-0.43,1.25-1.01,1.45c-0.84,0.29-1.71,0.58-2.57,0.63c-2.94,0.14-5.88,0.17-8.82,0.25c-0.35,0.01-0.46-0.13-0.46-0.51
	c0.02-2.57,0.03-5.14,0.03-7.71c0-0.42,0.2-0.46,0.5-0.46c1.59,0.01,3.18,0.07,4.76-0.02c1.53-0.09,3.04,0.05,4.53,0.37
	c0.61,0.13,1.22,0.4,1.79,0.7c0.43,0.22,0.69,0.68,0.66,1.24c-0.04,0.59-0.36,1.01-0.84,1.15c-0.9,0.26-1.82,0.42-2.72,0.62
	c-0.08,0.02-0.16,0.02-0.24,0.04C272.76,376.83,272.76,376.86,272.75,376.89z M266.11,380.32c0.16,0.03,0.25,0.05,0.35,0.05
	c1.34,0,2.68,0.04,4.02-0.01c1.24-0.04,2.47-0.22,3.63-0.81c0.29-0.15,0.44-0.37,0.38-0.66c-0.05-0.27-0.2-0.61-0.39-0.72
	c-0.43-0.25-0.91-0.49-1.38-0.52c-2.1-0.12-4.21-0.16-6.32-0.22c-0.1,0-0.28,0.17-0.28,0.26
	C266.1,378.57,266.11,379.44,266.11,380.32z M268.26,376.53c0,0.02,0,0.04,0,0.05c0.98-0.05,1.96-0.06,2.94-0.18
	c0.56-0.07,1.11-0.27,1.65-0.47c0.38-0.14,0.58-0.56,0.5-0.96c-0.06-0.31-0.3-0.64-0.54-0.81c-0.27-0.2-0.64-0.33-0.97-0.35
	c-1.8-0.06-3.59-0.09-5.39-0.1c-0.11,0-0.31,0.25-0.32,0.39c-0.04,0.67-0.01,1.35-0.03,2.02c-0.01,0.33,0.15,0.4,0.4,0.4
	C267.09,376.53,267.67,376.53,268.26,376.53z"/>
<path class="st1" d="M291.38,381.19c0-1.95,0-3.86,0-5.78c0-0.69,0.04-1.39,0-2.08c-0.02-0.49,0.15-0.64,0.57-0.59
	c0.16,0.02,0.32,0.02,0.55,0.03c0,2.17,0,4.32,0,6.47c1.27-1.2,1.7-3.08,3.11-4.1c0.55,0.44,0.8,0.44,1.23-0.21
	c0.35-0.52,0.67-0.99,1.29-1.18c0.29-0.09,0.54-0.39,0.76-0.65c0.28-0.33,0.62-0.42,1-0.43c0.72-0.01,1.43-0.03,2.15-0.05
	c0.33-0.01,0.35,0.21,0.34,0.49c-0.02,2.04-0.04,4.07-0.05,6.11c0,0.51,0.01,1.03-0.01,1.54c-0.01,0.14-0.14,0.37-0.22,0.38
	c-0.92,0.03-1.84,0.02-2.83,0.02c0-2.26,0-4.43,0-6.59c-0.1-0.02-0.14-0.05-0.15-0.03c-0.63,0.78-1.76,0.86-2.21,1.93
	c-0.13,0.31-0.52,0.49-0.79,0.73c-0.19-0.18-0.33-0.3-0.46-0.43c-0.87,0.47-1.2,1.39-1.69,2.17c-0.32,0.51-0.63,1.03-0.91,1.57
	C292.69,381.27,292.13,381.38,291.38,381.19z"/>
<path class="st1" d="M311.16,373.71c0.11-0.17,0.22-0.35,0.35-0.5c0.11-0.13,0.26-0.33,0.39-0.33c2.28-0.02,4.56-0.01,6.85-0.01
	c0.65,0,1.3,0,2,0c0,2.75,0,5.5,0,8.31c-0.67,0-1.3,0-1.94,0c-0.45,0-0.91,0-1.36,0.01c-0.29,0-0.39-0.14-0.39-0.45
	c0.01-1.98,0-3.97,0.01-5.95c0-0.94,0.01-0.94-0.84-0.94c-1.36,0-2.71,0.03-4.07,0c-0.43-0.01-0.68,0.08-0.74,0.57
	c-0.01,0.1-0.09,0.2-0.23,0.28c0-0.33,0-0.67,0-1L311.16,373.71z"/>
<path class="st1" d="M346.45,380.85c0-2.17,0-4.31,0-6.46c-0.05-0.02-0.11-0.04-0.16-0.06c-0.22,0.25-0.46,0.49-0.67,0.75
	c-0.45,0.56-0.88,1.13-1.32,1.68c-0.07,0.09-0.19,0.2-0.28,0.19c-0.9-0.03-1.4,0.7-2.05,1.13c-0.18,0.11-0.36,0.22-0.55,0.35
	c-0.12-0.17-0.23-0.31-0.38-0.52c-0.26,0.39-0.5,0.74-0.76,1.13c-0.08-0.07-0.17-0.15-0.31-0.27c-0.21,0.44-0.4,0.87-0.6,1.29
	c-0.43,0.93-0.73,1.11-1.8,1.02c0-2.58,0-5.16,0-7.79c0.22-0.03,0.47-0.06,0.78-0.1c0.07,1.97,0.13,3.93,0.2,5.95
	c0.92-0.34,0.88-1.38,1.47-1.93c0.08,0.06,0.16,0.12,0.25,0.18c0.25-0.36,0.49-0.69,0.76-1.07c0.14,0.17,0.24,0.29,0.4,0.48
	c0.31-0.21,0.63-0.42,0.95-0.64c0.47-0.33,0.84-0.81,1.52-0.79c0.26,0.01,0.57-0.3,0.78-0.54c0.44-0.52,0.84-1.08,1.24-1.63
	c0.41-0.58,0.98-0.59,1.64-0.51c0.01,0.18,0.02,0.36,0.02,0.53c0.02,2.24,0.03,4.48,0.05,6.72
	C347.63,380.92,347.56,380.98,346.45,380.85z"/>
<path class="st1" d="M283,372.65c0.15,0.57,0.27,1,0.38,1.43c0.38,1.51,1.19,2.85,1.41,4.43c0.07,0.54,0.26,1.06,0.41,1.67
	c0.1-0.15,0.14-0.23,0.25-0.4c0.17,0.52,0.31,0.97,0.48,1.49c-0.36,0-0.68,0.04-0.98-0.02c-0.12-0.02-0.26-0.22-0.31-0.37
	c-0.67-2.14-1.32-4.28-1.99-6.45c-0.15,0.56-0.29,1.14-0.47,1.71c-0.5,1.62-1.01,3.24-1.54,4.85c-0.05,0.14-0.28,0.21-0.42,0.31
	c-0.08-0.15-0.24-0.3-0.23-0.44c0.03-0.5,0.05-1.01,0.19-1.48c0.44-1.42,0.93-2.83,1.4-4.24c0.24-0.72,0.46-1.45,0.75-2.14
	C282.41,372.83,282.75,372.78,283,372.65z"/>
<path class="st1" d="M311.18,373.7c-0.16,0.02-0.32,0.04-0.54,0.07c0,2.4,0,4.81,0,7.26c-0.41,0-0.76,0-1.14,0c0-2.72,0-5.43,0-8.14
	c1.22-0.46,1.58-0.28,1.67,0.83C311.16,373.71,311.18,373.7,311.18,373.7z"/>
<path class="st1" d="M327.16,372.66c-0.39,1.2-0.74,2.3-1.09,3.4c-0.06,0.18-0.12,0.37-0.18,0.55c-0.23,0.67-0.38,1.33-0.93,1.89
	c-0.45,0.46-0.65,1.29-0.83,1.99c-0.15,0.57-0.37,0.73-0.92,0.55c0.25-0.96,0.47-1.94,0.76-2.89c0.23-0.77,0.38-1.68,0.86-2.21
	c0.78-0.86,1-1.94,1.4-2.96C326.43,372.47,326.79,372.72,327.16,372.66z"/>
<path class="st1" d="M303.83,381.2c-0.09-0.15-0.27-0.29-0.27-0.44c-0.03-1.28-0.02-2.56-0.05-3.84c-0.01-0.58-0.07-1.16-0.11-1.74
	c-0.05,0-0.1,0-0.15,0c0,1.98,0,3.95,0,5.93c-0.07,0-0.14,0-0.2,0c0-2.79,0-5.57,0-8.39c-0.01,0.01,0.02-0.02,0.04-0.02
	c0.3,0.01,0.73-0.1,0.86,0.06c0.16,0.21,0.07,0.64,0.07,0.98c0,2.34-0.01,4.68-0.02,7.03c0,0.12-0.03,0.24-0.04,0.36
	C303.92,381.14,303.87,381.17,303.83,381.2z"/>
<path class="st1" d="M331.53,381.14c-0.85,0.07-0.96-0.11-1.13-0.87c-0.38-1.73-0.81-3.45-1.29-5.15c-0.18-0.63-0.49-1.22-0.34-1.91
	c0.03-0.16,0.15-0.3,0.22-0.45c0.17,0.12,0.44,0.21,0.49,0.38c0.19,0.6,0.32,1.22,0.46,1.84c0.22,0.98,0.41,1.96,0.66,2.93
	C330.88,378.98,331.21,380.03,331.53,381.14z"/>
<path class="st1" d="M321.32,372.83c0.06,2.77-0.01,5.53,0.01,8.3c-0.06,0-0.12,0-0.18,0c0-2.77,0-5.53,0-8.3
	C321.2,372.83,321.26,372.83,321.32,372.83z"/>
<path class="st1" d="M287.64,380.7c0.03,0.1,0.08,0.3,0.14,0.54c-0.53,0-1.02,0-1.57,0c0.01-0.3,0.03-0.58,0.04-0.96
	c0.13,0.14,0.2,0.22,0.28,0.3c0.08-0.1,0.15-0.2,0.22-0.3C287.04,380.41,287.3,380.54,287.64,380.7z"/>
<path class="st1" d="M335.64,379.42c0.17,0.34,0.35,0.67,0.55,1.05c-0.52,0.09-0.98,0.18-1.44,0.26c-0.03-0.03-0.06-0.06-0.09-0.09
	C334.98,380.24,335.3,379.85,335.64,379.42z"/>
</svg>
